<svg xmlns="http://www.w3.org/2000/svg" height="512" preserveAspectRatio="none" style="display: block;" version="1.1" viewBox="0 0 2048 2048" width="512">
<path d="M 1214.74 604.999 C 1296.48 597.081 1365.83 654.344 1387.9 730.902 C 1477.02 732.754 1547.99 708.087 1525.71 833.627 L 1513.6 898.74 C 1491.5 1013.67 1470.81 1131.83 1451.36 1247.47 L 1434.59 1343.33 C 1428.14 1380.29 1429.03 1417.85 1392.99 1438.08 L 1393.56 1439.83 C 1398.21 1454.36 1400.45 1474.85 1402.7 1490.35 L 1434.61 1702.84 C 1437.43 1722.51 1456.17 1779.48 1429.67 1784.8 C 1417.12 1787.32 1353.84 1786.89 1345.45 1779.39 C 1337.41 1772.21 1294.46 1468.84 1291.02 1444.99 L 1001.61 1444.99 C 998.401 1455.59 991.869 1502.87 989.614 1516.38 L 960.239 1695.54 C 956.928 1715.58 951.837 1769.04 941.748 1783.5 C 940.071 1785.91 853.101 1791.25 848.227 1778.56 C 842.923 1764.76 848.037 1751.19 850.372 1737.69 L 862.11 1669.22 C 863.34 1657.5 867.029 1639.42 868.927 1627.18 L 884.865 1525.42 C 888.335 1503.2 891.252 1465.23 897.329 1444.99 C 849.493 1409.77 853.247 1397.8 853.514 1340.99 C 835.171 1341.61 812.539 1341.6 794.189 1340.99 C 790.527 1368.01 788.677 1403.87 786.164 1431.52 L 762.941 1691.27 C 759.386 1732.26 755.51 1772.43 707.585 1783.93 C 693.796 1787.24 590.979 1787.29 575.62 1785.05 C 501.992 1774.32 482.21 1661.61 583.017 1640.57 C 582.491 1519.64 590.499 1398.08 591.506 1277.1 C 592.182 1195.88 630.409 1129.01 718.363 1122.89 C 705.075 1091.02 700.211 1060.7 720.218 1030.9 C 746.604 991.605 789.164 996.672 830.26 994.341 C 911.549 989.73 977.461 971.446 1056.11 956.318 L 1056.09 836.977 C 1056.07 809.85 1054.06 776.597 1059.42 750.398 C 1076.04 669.085 1133.93 615.708 1214.74 604.999 z M 1090.96 892.74 C 1118.34 843.367 1143.47 792.472 1171.82 743.562 C 1193.19 706.702 1214.31 733.917 1208.09 747.001 C 1201.35 761.428 1193.27 775.133 1185.58 789.037 L 1099.86 945.315 C 1094.33 955.17 1083.3 977.673 1076.53 985.004 L 1074.97 985.584 C 1005.84 1011 887.91 1025.33 815.475 1028.67 C 801.022 1029.34 786.015 1029.06 772.061 1032.78 C 725.708 1046.74 724.049 1126.72 798.2 1125.14 C 907.554 1122.8 1046.62 1112.21 1147.8 1064.69 C 1164.98 1031.44 1183.32 997.994 1200.92 964.897 L 1260.77 854.286 C 1269.31 838.166 1306.68 744.121 1326.69 801.059 C 1322.58 816.835 1299.81 854.05 1290.9 870.427 L 1228.1 986.417 C 1175.97 1081.83 1192.81 1095.27 1087.81 1122.89 C 1086.66 1182.71 1087.81 1246.74 1087.81 1306.99 C 1101.36 1307.07 1116.3 1306.53 1129.65 1307.07 C 1245.91 1311.77 1346.01 1219.48 1357.52 1104.61 C 1359.71 1082.77 1358.78 1058.57 1358.76 1036.47 L 1358.75 846.685 C 1358.76 802.788 1365.04 749.795 1343.89 710.669 C 1317.26 661.406 1270.33 635.851 1214.74 639.055 C 1076.59 665.381 1089.62 785.243 1090.96 892.74 z M 1056.11 1306.99 L 1056.17 1203.73 C 1056.17 1194.13 1060.32 1128.96 1049.32 1132.42 C 958.894 1145.07 888.478 1160.22 792.356 1158.74 C 674.608 1156.93 627.962 1160.89 625.336 1290.87 L 615.053 1656.83 C 613.811 1691.52 575.754 1663.55 555.471 1689.7 C 540.448 1709.06 546.322 1728.71 562.185 1743.84 C 584.607 1758.11 616.343 1751.82 641.53 1751.87 C 663.669 1751.92 705.175 1760.01 720.157 1737.64 C 729.904 1723.09 732.19 1657.75 734.054 1636.67 L 758.974 1353.99 C 764.898 1286.85 775.441 1306.97 848.8 1306.99 L 1056.11 1306.99 z M 1259.75 1306.99 L 1358.74 1306.99 L 1405.16 1306.99 C 1427.2 1222.36 1439.89 1116.1 1455.37 1028.99 L 1493.09 821.344 C 1506.87 746.201 1470.85 764.162 1405.16 764.298 C 1386.19 765.182 1393.13 791.23 1393.06 807.975 L 1393.02 988.661 C 1393.01 1115.29 1394.81 1238.62 1259.75 1306.99 z M 916.458 1751.98 C 934.817 1653.31 953.331 1543.84 966.461 1444.99 C 960.607 1444.9 955.108 1444.85 949.247 1444.99 L 932.499 1444.99 C 927.548 1465.55 923.503 1500.98 920.122 1522.84 L 895.534 1672.93 C 891.67 1696.34 887.473 1729.96 882.303 1751.98 C 889.723 1752.39 893.704 1752.5 901.081 1751.98 L 916.458 1751.98 z M 897.329 1340.99 C 879.009 1343.1 886.163 1380.31 889.962 1391 C 895.877 1407.63 911.452 1410.9 927.055 1410.61 L 1313.43 1410.78 C 1336.59 1410.77 1368.51 1415.26 1387.9 1400.91 C 1394.24 1385.55 1397.84 1358.14 1400.82 1340.99 C 1343.44 1341.63 1284.76 1340.99 1227.27 1340.99 L 897.329 1340.99 z M 1326.69 1444.99 C 1326.58 1465.52 1333.18 1498.28 1336.42 1519.6 L 1360.43 1671.99 C 1364.17 1694.42 1371.63 1728.6 1373.48 1750 L 1405.16 1750 C 1404.45 1736.18 1400.3 1711.88 1398.25 1697.56 L 1367.9 1487.42 C 1366.13 1475.01 1364.24 1456.5 1361.76 1444.99 L 1326.69 1444.99 z" fill="rgb(0,0,0)" transform="translate(0,0)"></path>
<path d="M 1218.66 261.001 C 1283.36 247.675 1356.65 300.913 1368.62 366.873 C 1382.5 443.356 1331.84 557.614 1248.77 573.041 C 1108.42 593.463 1002.39 290.954 1218.66 261.001 z M 1241.74 540.276 C 1327.03 521.368 1376.31 365.182 1292.51 310.41 C 1276.25 299.782 1243.75 291.036 1224.5 294.412 C 1057.17 309.225 1140.87 548.09 1241.74 540.276 z" fill="rgb(0,0,0)" transform="translate(0,0)"></path>
<metadata><recraft-signature>{"signed_by": "recraft", "signature_b64": "yGIaapAavjDmj9g5MJJkdk/PsBqEgOt7u+fOvUGpnkuRUGqO5Y1OEG1b+S7BsO4zEieo6Lqomfs2GUG0pEhEDw==", "signing_algo": "Ed25519"}</recraft-signature></metadata></svg>