<svg width="400" height="400" xmlns="http://www.w3.org/2000/svg">
  <!-- Background -->
  <rect width="400" height="400" fill="#f5f5f5" rx="20" ry="20"/>
  
  <!-- Shield Background -->
  <path d="M200,50 L80,100 L80,200 C80,280 130,340 200,370 C270,340 320,280 320,200 L320,100 Z" fill="white" stroke="#3498db" stroke-width="8"/>
  
  <!-- Health Cross -->
  <rect x="180" y="100" width="40" height="180" fill="#e74c3c" rx="5" ry="5"/>
  <rect x="110" y="170" width="180" height="40" fill="#e74c3c" rx="5" ry="5"/>
  
  <!-- Health Icons -->
  
  <!-- Eye Care -->
  <circle cx="130" cy="130" r="25" fill="#3498db" opacity="0.9"/>
  <g transform="translate(130, 130) scale(0.04)">
    <path d="M572.52,241.4C518.29,135.59,410.93,64,288,64S57.68,135.64,3.48,241.41a32.35,32.35,0,0,0,0,29.19C57.71,376.41,165.07,448,288,448s230.32-71.64,284.52-177.41A32.35,32.35,0,0,0,572.52,241.4ZM288,400A144,144,0,1,1,432,256,143.93,143.93,0,0,1,288,400Zm0-240a95.31,95.31,0,0,0-25.31,3.79,47.85,47.85,0,0,1-66.9,66.9A95.78,95.78,0,1,0,288,160Z" fill="white"/>
  </g>
  
  <!-- Ergonomics -->
  <circle cx="270" cy="130" r="25" fill="#2ecc71" opacity="0.9"/>
  <g transform="translate(270, 130) scale(0.04)">
    <path d="M248,8C111,8,0,119,0,256S111,504,248,504,496,393,496,256,385,8,248,8Zm0,448c-110.3,0-200-89.7-200-200S137.7,56,248,56s200,89.7,200,200S358.3,456,248,456ZM360,176H248a8,8,0,0,0-8,8v160a8,8,0,0,0,8,8h24a8,8,0,0,0,8-8V296h80a8,8,0,0,0,8-8V184A8,8,0,0,0,360,176Zm-24,88H280V200h56ZM256,8C119,8,8,119,8,256S119,504,256,504,504,393,504,256,393,8,256,8Zm0,448c-110.5,0-200-89.5-200-200S145.5,56,256,56s200,89.5,200,200S366.5,456,256,456ZM298.8,164.1l-80,48c-11.1,6.6-18.8,18.5-18.8,32V344c0,13.1,7.1,24.7,18.2,31.1l.6.3,80,48c5.6,3.4,12.1,5.1,18.8,5.1,19.9,0,36-16.1,36-36V196c0-19.9-16.1-36-36-36C310.9,160,304.3,161.7,298.8,164.1Z" fill="white"/>
  </g>
  
  <!-- Hydration -->
  <circle cx="130" cy="250" r="25" fill="#3498db" opacity="0.9"/>
  <g transform="translate(130, 250) scale(0.04)">
    <path d="M290.74,93.24l128.07,128.07c92.99,92.99,92.99,243.52,0,336.51s-243.52,92.99-336.51,0 C-10.69,464.83-10.69,314.29,82.3,221.3L210.37,93.24C231.2,72.41,269.91,72.41,290.74,93.24z" fill="white"/>
  </g>
  
  <!-- Exercise -->
  <circle cx="270" cy="250" r="25" fill="#f39c12" opacity="0.9"/>
  <g transform="translate(270, 250) scale(0.04)">
    <path d="M480,96H32C14.3,96,0,110.3,0,128v64c0,17.7,14.3,32,32,32h448c17.7,0,32-14.3,32-32v-64C512,110.3,497.7,96,480,96z M480,288H32c-17.7,0-32,14.3-32,32v64c0,17.7,14.3,32,32,32h448c17.7,0,32-14.3,32-32v-64C512,302.3,497.7,288,480,288z" fill="white"/>
  </g>
  
  <!-- Sleep -->
  <circle cx="200" cy="310" r="25" fill="#9b59b6" opacity="0.9"/>
  <g transform="translate(200, 310) scale(0.04)">
    <path d="M224.1,141c-63.6,0-114.9,51.3-114.9,114.9s51.3,114.9,114.9,114.9S339,319.5,339,255.9S287.7,141,224.1,141z M224.1,319.2c-35.9,0-65-29.1-65-65s29.1-65,65-65s65,29.1,65,65S260,319.2,224.1,319.2z" fill="white"/>
    <path d="M436,160.9c-49.3-2.9-62.6-23.9-62.6-23.9c0-10.7-8.7-19.4-19.4-19.4c-10.7,0-19.4,8.7-19.4,19.4 c0,0-13.3,21-62.6,23.9c-8.3,0.5-14.9,7.5-14.9,15.8v92.3c0,8.4,6.6,15.3,14.9,15.8c49.3,2.9,62.6,23.9,62.6,23.9 c0,10.7,8.7,19.4,19.4,19.4c10.7,0,19.4-8.7,19.4-19.4c0,0,13.3-21,62.6-23.9c8.3-0.5,14.9-7.5,14.9-15.8v-92.3 C450.9,168.3,444.3,161.4,436,160.9z" fill="white"/>
  </g>
  
  <!-- Decorative Elements -->
  <circle cx="200" cy="200" r="100" fill="none" stroke="#3498db" stroke-width="2" stroke-dasharray="10,5"/>
  
  <!-- Small Decorative Circles -->
  <circle cx="120" cy="180" r="5" fill="#e74c3c"/>
  <circle cx="280" cy="180" r="5" fill="#e74c3c"/>
  <circle cx="150" cy="300" r="5" fill="#e74c3c"/>
  <circle cx="250" cy="300" r="5" fill="#e74c3c"/>
  
  <!-- Title -->
  <text x="200" y="380" font-family="Arial" font-size="18" font-weight="bold" text-anchor="middle" fill="#333">Cuidados Essenciais</text>
</svg>