<svg width="400" height="400" xmlns="http://www.w3.org/2000/svg">
  <!-- Background -->
  <rect width="400" height="400" fill="#f5f5f5" rx="20" ry="20"/>
  
  <!-- Calendar Background -->
  <rect x="50" y="50" width="300" height="300" fill="white" stroke="#3498db" stroke-width="4" rx="10" ry="10"/>
  
  <!-- Calendar Header -->
  <rect x="50" y="50" width="300" height="50" fill="#3498db" rx="10" ry="10"/>
  <text x="200" y="85" font-family="Arial" font-size="24" font-weight="bold" text-anchor="middle" fill="white">Rotina Saudável</text>
  
  <!-- Calendar Grid -->
  <line x1="50" y1="150" x2="350" y2="150" stroke="#ddd" stroke-width="2"/>
  <line x1="50" y1="200" x2="350" y2="200" stroke="#ddd" stroke-width="2"/>
  <line x1="50" y1="250" x2="350" y2="250" stroke="#ddd" stroke-width="2"/>
  <line x1="50" y1="300" x2="350" y2="300" stroke="#ddd" stroke-width="2"/>
  
  <line x1="100" y1="100" x2="100" y2="350" stroke="#ddd" stroke-width="2"/>
  <line x1="150" y1="100" x2="150" y2="350" stroke="#ddd" stroke-width="2"/>
  <line x1="200" y1="100" x2="200" y2="350" stroke="#ddd" stroke-width="2"/>
  <line x1="250" y1="100" x2="250" y2="350" stroke="#ddd" stroke-width="2"/>
  <line x1="300" y1="100" x2="300" y2="350" stroke="#ddd" stroke-width="2"/>
  
  <!-- Day Labels -->
  <text x="75" y="125" font-family="Arial" font-size="14" font-weight="bold" text-anchor="middle" fill="#555">Seg</text>
  <text x="125" y="125" font-family="Arial" font-size="14" font-weight="bold" text-anchor="middle" fill="#555">Ter</text>
  <text x="175" y="125" font-family="Arial" font-size="14" font-weight="bold" text-anchor="middle" fill="#555">Qua</text>
  <text x="225" y="125" font-family="Arial" font-size="14" font-weight="bold" text-anchor="middle" fill="#555">Qui</text>
  <text x="275" y="125" font-family="Arial" font-size="14" font-weight="bold" text-anchor="middle" fill="#555">Sex</text>
  <text x="325" y="125" font-family="Arial" font-size="14" font-weight="bold" text-anchor="middle" fill="#555">Sáb</text>
  
  <!-- Activity Icons -->
  
  <!-- Exercise -->
  <circle cx="75" cy="175" r="15" fill="#36bd2a" opacity="0.8"/>
  <g transform="translate(75, 175) scale(0.03)">
    <path d="M352.57,157.26l-20.27,20.27c-3.17,3.17-8.31,3.17-11.48,0L256,112.72l-64.81,64.81c-3.17,3.17-8.31,3.17-11.48,0 l-20.27-20.27c-3.17-3.17-3.17-8.31,0-11.48l90.42-90.42c3.17-3.17,8.31-3.17,11.48,0l91.22,91.22 C355.74,148.95,355.74,154.09,352.57,157.26z" fill="white"/>
    <path d="M352.57,354.74l-90.42-90.42c-3.17-3.17-8.31-3.17-11.48,0l-90.42,90.42c-3.17,3.17-3.17,8.31,0,11.48l20.27,20.27 c3.17,3.17,8.31,3.17,11.48,0L256,321.68l64.81,64.81c3.17,3.17,8.31,3.17,11.48,0l20.27-20.27 C355.74,363.05,355.74,357.91,352.57,354.74z" fill="white"/>
  </g>
  
  <!-- Meditation -->
  <circle cx="175" cy="175" r="15" fill="#9b59b6" opacity="0.8"/>
  <g transform="translate(175, 175) scale(0.03)">
    <path d="M256,128c35.35,0,64-28.65,64-64S291.35,0,256,0s-64,28.65-64,64S220.65,128,256,128z M256,48 c8.84,0,16,7.16,16,16s-7.16,16-16,16s-16-7.16-16-16S247.16,48,256,48z" fill="white"/>
    <path d="M256,128c-35.35,0-64,28.65-64,64c0,35.35,28.65,64,64,64s64-28.65,64-64C320,156.65,291.35,128,256,128z" fill="white"/>
  </g>
  
  <!-- Healthy Meal -->
  <circle cx="275" cy="175" r="15" fill="#e74c3c" opacity="0.8"/>
  <g transform="translate(275, 175) scale(0.03)">
    <path d="M207.9,15.2c0.8,4.7,16.1,94.5,16.1,128.8c0,52.3-27.8,89.6-68.9,104.6L168,486.7c0.7,13.7-10.2,25.3-24,25.3H80 c-13.7,0-24.7-11.5-24-25.3l12.9-238.1C27.7,233.6,0,196.3,0,144C0,109.6,15.3,19.9,16.1,15.2C19.3-5.1,61.4-5.4,64,16.3v141.2 c1.3,3.4,15.1,3.2,16,0c1.4-25.3,7.9-139.2,8-141.8c3.3-20.8,44.7-20.8,47.9,0c0.2,2.7,6.6,116.5,8,141.8c0.9,3.2,14.8,3.4,16,0 V16.3C162.6-5.4,204.7-5.1,207.9,15.2z" fill="white"/>
  </g>
  
  <!-- Sleep -->
  <circle cx="75" cy="275" r="15" fill="#34495e" opacity="0.8"/>
  <g transform="translate(75, 275) scale(0.03)">
    <path d="M224.1,141c-63.6,0-114.9,51.3-114.9,114.9s51.3,114.9,114.9,114.9S339,319.5,339,255.9S287.7,141,224.1,141z M224.1,319.2c-35.9,0-65-29.1-65-65s29.1-65,65-65s65,29.1,65,65S260,319.2,224.1,319.2z" fill="white"/>
    <path d="M436,160.9c-49.3-2.9-62.6-23.9-62.6-23.9c0-10.7-8.7-19.4-19.4-19.4c-10.7,0-19.4,8.7-19.4,19.4 c0,0-13.3,21-62.6,23.9c-8.3,0.5-14.9,7.5-14.9,15.8v92.3c0,8.4,6.6,15.3,14.9,15.8c49.3,2.9,62.6,23.9,62.6,23.9 c0,10.7,8.7,19.4,19.4,19.4c10.7,0,19.4-8.7,19.4-19.4c0,0,13.3-21,62.6-23.9c8.3-0.5,14.9-7.5,14.9-15.8v-92.3 C450.9,168.3,444.3,161.4,436,160.9z" fill="white"/>
  </g>
  
  <!-- Hydration -->
  <circle cx="175" cy="275" r="15" fill="#3498db" opacity="0.8"/>
  <g transform="translate(175, 275) scale(0.03)">
    <path d="M290.74,93.24l128.07,128.07c92.99,92.99,92.99,243.52,0,336.51s-243.52,92.99-336.51,0 C-10.69,464.83-10.69,314.29,82.3,221.3L210.37,93.24C231.2,72.41,269.91,72.41,290.74,93.24z M444.02,342.78 c0-75.11-60.89-136-136-136s-136,60.89-136,136s60.89,136,136,136S444.02,417.9,444.02,342.78z M379.24,322.19 c-8.5-8.5-22.3-8.5-30.8,0l-30.57,30.57V240c0-12.02-9.75-21.77-21.77-21.77s-21.77,9.75-21.77,21.77v112.76l-30.57-30.57 c-8.5-8.5-22.3-8.5-30.8,0c-8.5,8.5-8.5,22.3,0,30.8l68.93,68.93c8.5,8.5,22.3,8.5,30.8,0l68.93-68.93 C387.74,344.49,387.74,330.69,379.24,322.19z" fill="white"/>
  </g>
  
  <!-- Stretching -->
  <circle cx="275" cy="275" r="15" fill="#f39c12" opacity="0.8"/>
  <g transform="translate(275, 275) scale(0.03)">
    <path d="M288,256c53,0,96-43,96-96s-43-96-96-96s-96,43-96,96S235,256,288,256z M277.3,340.7l-8.8-34.7h-63.5 c-38.7,0-73.9,23.1-89.1,58.6l-5.9,13.8l14.7,7c2.5,1.2,5.1,1.7,7.7,1.7c7.5,0,14.5-4.3,17.8-11.5c6.9-15,21.9-24.7,38.2-24.7h14.2 l-8.8,34.7c-1.9,7.8-1.1,15.8,2.5,22.7L240,480h40l-23.6-96.2l15.8-62.5c4.9,1.2,9.9,1.8,15,1.8c35.3,0,64-28.7,64-64v-32 c0-17.7-14.3-32-32-32h-96c-17.7,0-32,14.3-32,32v32c0,17.8,7.3,33.9,19.2,45.4l-13.4,53.4h-46.1c-41.8,0-80,26.7-93.6,66.6 c-6.1,17.8,3.5,37.2,21.3,43.3c17.8,6.1,37.2-3.5,43.4-21.3c6.9-20,25.8-33.4,46.9-33.4h27.4l-9.5,38.2c-1.9,7.8-1.1,15.8,2.5,22.7 L240,480h40l-23.6-96.2C275.4,375.4,280.5,358.3,277.3,340.7z" fill="white"/>
  </g>
  
  <!-- Screen Break -->
  <circle cx="75" cy="325" r="15" fill="#2ecc71" opacity="0.8"/>
  <g transform="translate(75, 325) scale(0.03)">
    <path d="M528,0H48C21.5,0,0,21.5,0,48v320c0,26.5,21.5,48,48,48h192l-16,48h-72c-13.3,0-24,10.7-24,24s10.7,24,24,24h272 c13.3,0,24-10.7,24-24s-10.7-24-24-24h-72l-16-48h192c26.5,0,48-21.5,48-48V48C576,21.5,554.5,0,528,0z M512,352H64V64h448V352z" fill="white"/>
    <path d="M356.4,188.4c3.1,3.1,8.2,3.1,11.3,0l45.3-45.3c3.1-3.1,3.1-8.2,0-11.3l-11.3-11.3c-3.1-3.1-8.2-3.1-11.3,0l-45.3,45.3 c-3.1,3.1-3.1,8.2,0,11.3L356.4,188.4z" fill="white"/>
    <path d="M185.3,257.7l-45.3,45.3c-3.1,3.1-3.1,8.2,0,11.3l11.3,11.3c3.1,3.1,8.2,3.1,11.3,0l45.3-45.3c3.1-3.1,3.1-8.2,0-11.3 l-11.3-11.3C193.5,254.6,188.4,254.6,185.3,257.7z" fill="white"/>
    <path d="M317.9,226.9l-135.8-135.8c-3.1-3.1-8.2-3.1-11.3,0l-11.3,11.3c-3.1,3.1-3.1,8.2,0,11.3l135.8,135.8 c3.1,3.1,8.2,3.1,11.3,0l11.3-11.3C321,235.1,321,230,317.9,226.9z" fill="white"/>
  </g>
  
  <!-- Social Connection -->
  <circle cx="175" cy="325" r="15" fill="#e67e22" opacity="0.8"/>
  <g transform="translate(175, 325) scale(0.03)">
    <path d="M192,256c61.9,0,112-50.1,112-112S253.9,32,192,32S80,82.1,80,144S130.1,256,192,256z M268.8,288h-8.3 c-20.8,10-43.9,16-68.5,16s-47.6-6-68.5-16h-8.3C51.6,288,0,339.6,0,403.2V432c0,26.5,21.5,48,48,48h288c26.5,0,48-21.5,48-48 v-28.8C384,339.6,332.4,288,268.8,288z" fill="white"/>
    <path d="M480,256c53,0,96-43,96-96s-43-96-96-96s-96,43-96,96S427,256,480,256z M528,288h-3.8c-13.9,4.8-28.6,8-44.2,8 s-30.3-3.2-44.2-8H432c-20.4,0-39.2,5.9-55.7,15.4c24.4,26.3,39.7,61.2,39.7,99.8v38.4c0,2.2-0.5,4.3-0.6,6.4H592 c26.5,0,48-21.5,48-48C640,338.1,589.9,288,528,288z" fill="white"/>
  </g>
  
  <!-- Nature Time -->
  <circle cx="275" cy="325" r="15" fill="#27ae60" opacity="0.8"/>
  <g transform="translate(275, 325) scale(0.03)">
    <path d="M96,384c0,35.3,28.7,64,64,64h192c35.3,0,64-28.7,64-64v-44.8c0-16.6-8-32.1-21.4-41.8L250.3,185.5 c-6.5-4.7-15.2-4.7-21.7,0L84.3,297.4C70.9,307.1,64,322.6,64,339.2V384z" fill="white"/>
    <path d="M439.2,128c-4.8,0-9.6,1-14.1,3.1L320,160l-10.3-3.4c-12-4-25.1-0.6-33.8,8.6l-32,33.8l-42.1-14 c-12.8-4.3-26.8-0.9-36.5,8.8l-64,64c-9.2,9.2-11.9,22.9-6.9,34.9s16.6,19.8,29.6,19.8h18.3l90.5-90.5c6.2-6.2,16.4-6.2,22.6,0 c6.2,6.2,6.2,16.4,0,22.6L145.9,352H352c17.7,0,32-14.3,32-32v-64c0-17.7,14.3-32,32-32h45.4c16.4,0,30.8-12.3,32.7-28.6 C496,174.7,471.7,128,439.2,128z" fill="white"/>
  </g>
  
  <!-- Legend -->
  <text x="200" y="370" font-family="Arial" font-size="16" font-weight="bold" text-anchor="middle" fill="#333">Planeje sua rotina saudável</text>
</svg>